<svg xmlns="http://www.w3.org/2000/svg" viewBox="0 0 660.87 386.25"><defs><style>.cls-1{fill:#050404;}.cls-2{fill:#040404;}.cls-3{fill:#7fffb8;}</style></defs><g id="Layer_2" data-name="Layer 2"><g id="Layer_1-2" data-name="Layer 1"><path class="cls-1" d="M249.26,24.67a1.33,1.33,0,0,0-1.64.68c-1.47,1.95-2.88,4-4.45,5.84-3,3.61-6.63,6.16-11.44,6.91-13.79,2.16-27.55,4.42-41.22,7.25-20.55,4.25-40.89,9.38-61.29,14.3-26.44,6.37-52.86,12.82-79.78,17a128.92,128.92,0,0,0-14,3.17,44.57,44.57,0,0,1-11,1.5,6.05,6.05,0,0,0-3.19,1.22C15.34,86,9.42,89.36,4.08,93.58c-.87.69-1.69,1.4-2.78.51C-.51,92.6-.44,91,1.55,90c5.7-3,11-6.75,16.41-10.19a8.61,8.61,0,0,0,2.81-2.88,13.94,13.94,0,0,1,7.12-6c4-1.37,8-2.79,12-4,19.68-5.72,39.41-11.3,59.29-16.34,18.74-4.75,37.31-10.17,56.06-14.9,12.49-3.16,25-6.37,37.48-9.46,13.19-3.26,26.69-5.2,39.65-9.41,4-1.31,8.31-1.51,12.49-1.92a10.23,10.23,0,0,1,10.52,5.6A38.7,38.7,0,0,0,257.68,24c3.78,5.29,4.13,10.8,1.19,16.57a40.66,40.66,0,0,1-6.12,8.55c-8.53,9.56-18.11,18-27.61,26.58-38.82,34.87-77.51,69.88-114.88,106.32-12.42,12.11-24.69,24.39-37,36.61a8.1,8.1,0,0,0-2.42,2.92c1.1.6,1.93,0,2.77-.32C102.37,211,132,203.76,161.76,197.21c12.61-2.77,24.73-7.19,37.2-10.4,5.22-1.34,10.42-2.71,15.61-4.15a3.52,3.52,0,0,1,3,.26,204.19,204.19,0,0,1,23.56,16c.16.13.18.41.34.79-6.49.93-12.93,1.91-19.27,3.44-14.11,3.4-28.15,7-41.88,11.83-14.69,5.19-29.78,9.28-44.26,15.09-13.9,5.57-28.27,9.22-42.89,12.17-13.79,2.79-27.36,6.55-41,10a53,53,0,0,1-8.64,1.6c-10,.81-16.84-6.77-15.09-16.67.79-4.49,2.94-8.38,5.48-12.07a145.23,145.23,0,0,1,14.49-17.2c17.48-18.52,36-36,54.75-53.17,34.88-31.91,71.3-62,107.83-92,10.06-8.26,20.12-16.52,29.35-25.71a79.28,79.28,0,0,0,8.33-10.19A2.48,2.48,0,0,0,249.26,24.67Z"/><path class="cls-2" d="M333.68,208.94c-1.8-2.58-2.49-5.82-4.37-8.3-2.78-3.68-2.19-6.73.43-10.21,3.65-4.88,7.24-9.81,10.91-14.67,23.68-31.3,50.56-59.76,77.44-88.25,14.17-15,28.8-29.57,43.2-44.36A203.31,203.31,0,0,0,476.35,26a20.8,20.8,0,0,1,3.58-3.86c2.81-2.17,5.92-2.86,9.24-1.43a9.06,9.06,0,0,1,5.52,7.6,15.29,15.29,0,0,1-.87,6.56c-12.36,41-26.12,81.49-39.47,122.14-2.3,7-4.27,14.14-7.21,20.94a42.93,42.93,0,0,0-2.16,8.15c-3.47,15.82-8.32,31.27-12.32,46.95-7.06,27.6-14,55.23-21.61,82.7a145.22,145.22,0,0,1-5.91,17.66,45.72,45.72,0,0,0-2.57,9.08,6.54,6.54,0,0,1-1.84,3.65,40.81,40.81,0,0,1-10.93,8.07c-1.22.59-1.26,1.51-1.5,2.52q-2.69,11.64-5.4,23.27c-.34,1.47-.56,3-1,4.43-.65,2.12-2.42,2.49-4,.82a6.71,6.71,0,0,1-1.51-6.24q1.13-5.87,2.44-11.69c.92-4.12,1.9-8.22,2.91-12.31a3.24,3.24,0,0,0-.55-3.19c-1.92-2.5-3.48-5.27-5.23-7.9a7.11,7.11,0,0,1-.82-5.08,168.88,168.88,0,0,1,3.36-17.93c5.59-23.62,10.84-47.32,16.73-70.87,5.05-20.15,11.39-39.91,18.16-59.53.23-.67.48-1.33.69-2,.87-2.64.87-2.64-1.72-3.33-14-3.73-28.12-7.37-42.13-11.25-3-.83-4.87-.29-7,2C353.7,186,343.9,195.73,335.9,207.1A5.08,5.08,0,0,1,333.68,208.94Zm47.08-50.09a9.39,9.39,0,0,0,1.27.48q18.57,3.85,37.16,7.69c2.44.5,2.5.44,3.48-2.13,10.06-26.51,21.58-52.42,32.52-78.57a21.15,21.15,0,0,1,3.18-5.43c5.53-6.67,11.07-13.34,16.5-20.09.83-1,3.16-2.2,1.63-3.55-1.12-1-2.12,1.3-2.93,2.28-7.23,8.76-14.3,17.66-21.94,26.08-8.1,8.94-16.34,17.76-24.84,26.32Q404.88,134,382.93,156.07C382.14,156.87,381,157.48,380.76,158.85Z"/><path class="cls-1" d="M545.53,80.24c.14-2.92.2-5.84.46-8.75a4.25,4.25,0,0,0-2.16-4.41c-4-2.32-4.08-6.5-5-10.3-.32-1.37.6-2,1.79-2.58,4.32-2.06,9-2.37,13.62-2.8a27.94,27.94,0,0,1,4.19-.12c1,.06,1.87.48,1.11,1.8-3,5.23-5.32,10.87-9,15.73a3.77,3.77,0,0,0-.54,2.29,146.89,146.89,0,0,0-.26,15.42c0,1.63-.07,3.27-.16,4.9a2.11,2.11,0,0,1-2.06,2c-1.19.18-1.59-.78-1.87-1.69a7.72,7.72,0,0,1-.38-2c0-3.16,0-6.31,0-9.46Z"/><path class="cls-2" d="M557.81,50a54.92,54.92,0,0,0-15.71,2.28,25.69,25.69,0,0,0-14.53,10.45c-4.27,6-6.71,12.86-8.27,20-3.52,16.2-3.68,32.58-2.52,49,1.45,20.36,4.27,40.58,6.36,60.88,2.27,22,2.89,44-.35,66-2.43,16.56-6.69,32.6-14,47.74-7.51,15.56-18.62,27.8-33.74,36.24-11.26,6.28-23.28,9.22-36.22,7.28a33.33,33.33,0,0,1-14.65-5.62c-6.47-4.6-10-10.73-9.54-18.86a47.56,47.56,0,0,1,2.91-14.4c.39-1,.38-2.53,1.9-2.67,1.3-.11,1.55,1.23,2.2,2,6.41,7.62,14.89,11.74,24.47,10.28a41.4,41.4,0,0,0,25.5-14.47,69.58,69.58,0,0,0,11-17.93,170,170,0,0,0,12.06-42.53c2.73-18.91,2.5-37.88,1-56.86-1.65-20.93-3.27-41.87-3.1-62.88a189.63,189.63,0,0,1,5.58-46c2.71-10.54,6.83-20.45,13.55-29.13a42.5,42.5,0,0,1,25.35-16c3.48-.75,6.25-.31,8.81,2.54,3.21,3.56,6.92,6.67,10.37,10C556.85,48,557.85,48.37,557.81,50Z"/><path class="cls-1" d="M330.28,116.75c.14-3.24,1.35-5.94,2.1-8.71,1.67-6.19,3.81-12.26,5.63-18.42a5.24,5.24,0,0,1,3-3.51q27.9-14.17,55.7-28.55c10.61-5.51,21-11.42,30.3-19.06a40.19,40.19,0,0,0,9.08-9.73c2.57-4.14,2-5.18-2.87-5.43-5.8-.3-11.44.92-17,2.27-19.88,4.8-39,11.89-57.76,19.91-4,1.73-7.42,4.46-11,6.83a3.43,3.43,0,0,0-1.39,2.3c-2.84,10.52-6.1,20.91-9.37,31.3-2.55,8.13-5,16.3-7.16,24.55-2.49,9.38-5.44,18.64-8.23,27.94-3.41,11.33-7,22.61-10.24,34-2.05,7.22-4.72,14.23-6.63,21.48-1,3.71-3.77,6.13-6,9-.19.26-.63.61-.82.54-3.37-1.18-2.9,1.75-3.29,3.29-1.71,6.69-3.5,13.36-5.85,19.86a10.41,10.41,0,0,1-1.91,3.73,2.14,2.14,0,0,1-2.81.67,2,2,0,0,1-.87-2.44,10.26,10.26,0,0,1,.45-1.32q3.85-11.67,7.69-23.35c.43-1.28,1.15-2.63-.45-3.68-.4-4.38-1.91-8.59-.77-13.18,5.42-21.72,11.57-43.25,17.22-64.91,5.15-19.73,10.94-39.28,16.63-58.86,1.51-5.17,3.28-10.27,5-15.39a20.55,20.55,0,0,1,3.15-6.25,10.77,10.77,0,0,1,4.41-3.4,172.5,172.5,0,0,0,22.09-10.74c2.16-1.25,4.58-1.68,6.81-2.72C376.42,19.44,387.72,14,399.65,10a119.85,119.85,0,0,1,23.23-5.5,43.65,43.65,0,0,1,17.44,1c11.35,3.21,17,13.22,13.85,24.56a35.14,35.14,0,0,1-6.55,12.34A103.4,103.4,0,0,1,429.39,60c-11.79,9.18-24.65,16.67-37.72,23.8-17.7,9.66-35.52,19.09-53,29.16A42.44,42.44,0,0,1,330.28,116.75Z"/><path class="cls-1" d="M276.51,124.83c-5.55.4-10.93,1.45-16.34,2.19-15.1,2.08-30.1,4.8-45.3,6.17a14,14,0,0,1-2.8.17c-4.31-.57-7.51,1.4-10.75,4-10.08,8.05-20.4,15.79-30.53,23.78-5,3.92-9.7,8.13-14.54,12.21-.61.51-1.09,1.25-2,1.32-.93-.34-.63-1.15-.63-1.79,0-5.27.09-10.55,0-15.83a4.74,4.74,0,0,1,2-4.18c4.93-4,9.83-8,14.63-12.12,16.29-14,32.45-28.08,48.8-42a603.07,603.07,0,0,1,49.25-37.47C277.9,54.65,287.56,48,297.65,42c2.68-1.59,2.7-1.54,4.46,1.14.51.79,1,1.58,1.55,2.35,2.93,4.16,5,8.47,2.65,13.65-4.05,22.25-8.07,44.51-11.71,66.84a82.33,82.33,0,0,1-9.16,25.74,21,21,0,0,1-8.8,8.64c-1,.52-.9,1.27-1,2-.92,4.71-1.77,9.43-2.61,14.16-.9,5.07-1.74,10.16-2.64,15.23-.29,1.61-.5,3.47-2.7,3.5-1.42,0-2-1.72-1.51-4.42,1.88-9.89,3.15-19.91,6-29.6a3.93,3.93,0,0,0-.15-3,67.42,67.42,0,0,1-2.34-7.34,7,7,0,0,1,.52-4.8c2.63-6.53,4.21-13.39,6.31-20.09A5.22,5.22,0,0,0,276.51,124.83Zm22.22-62.72c-1.47-.51-1.84.45-2.34,1A175.69,175.69,0,0,1,274.72,81.9Q254.36,97.19,234,112.5c-1,.73-2.18,1.26-2.71,2.59a5,5,0,0,0,.85.06c15.27-2.36,30.52-4.78,45.8-7a3.43,3.43,0,0,0,3.32-3.17c2-9.61,4.26-19.18,6.23-28.8a7.63,7.63,0,0,1,2.56-4.37C293.22,68.87,295.8,65.46,298.73,62.11Z"/><path class="cls-1" d="M242,201c.31,1.53-.5,2.5-.91,3.54-4.44,11.09-9,22.14-13.38,33.23-.6,1.5-1.3,2.84-2.87,3.3s-2.07,1.68-2.49,3.06c-2.09,6.82-4.24,13.61-6.31,20.43a4.21,4.21,0,0,1-2,2.35c-1.83,1.14-3.53.27-3.76-1.89a6,6,0,0,1,.52-2.73c2.32-6.5,4.6-13,6.91-19.52.43-1.21,1-2.32,0-3.6-.78-1-.47-2.24-.38-3.41.58-7.36.87-14.74.81-22.13a17.08,17.08,0,0,0-.3-4.89,2.1,2.1,0,0,1,1.6-3C226.91,204,234.29,201.76,242,201Z"/><path class="cls-1" d="M441.37,318.83c-6.9-1.2-13.33-3.44-17.93-9.16-1.85-2.3-1.63-3.13.83-4.62a90.15,90.15,0,0,1,13.92-6.56c4.31-1.7,8.44-4.06,13.24-4.38a5.34,5.34,0,0,0,3-1.7c5.8-5.1,12.36-9.26,18-14.52,1.1-1,2.08-1,3,0s.55,1.91-.32,2.76c-1.17,1.14-2.26,2.37-3.5,3.42-4.37,3.72-8.73,7.45-13.22,11a5.46,5.46,0,0,0-2.4,5.08,6.69,6.69,0,0,1-1.24,4.95c-2.91,3.81-5.74,7.67-8.57,11.54A4.64,4.64,0,0,1,441.37,318.83Z"/><path class="cls-1" d="M190.92,173.35c-3.63,0-7.27,0-10.9,0a4.87,4.87,0,0,0-3,.78,15.58,15.58,0,0,1-7.58,2.49,56.17,56.17,0,0,0-7.89,1.66,6,6,0,0,1-2.41.36c-2.45-.4-3.21-2.38-1.64-4.3a4.66,4.66,0,0,1,.48-.51c3.53-3.26,7-6.59,10.62-9.75,2.58-2.24,4.51-2.22,7.22-.12,1.37,1.06,3.23,2.16,3.47,3.8.33,2.29,1.62,1.91,3,1.78,6.06-.6,12.11-1.38,18.22-1.3a11.47,11.47,0,0,1,3.82.44c.85.3,1.52.79,1.54,1.7a1.92,1.92,0,0,1-1.63,2,11,11,0,0,1-2.44.23c-3.63,0-7.26,0-10.89,0Z"/><path class="cls-1" d="M340.11,210.44c-1.43-.31-3.56.4-4.2-1s1.3-2.51,2.2-3.63c3-3.76,6.14-7.37,9.16-11.1,1.17-1.45,2.23-2.06,4.13-1.1a47.57,47.57,0,0,0,5.62,1.9c1.12.39,2.34,1,2.4,2.29.08,2.08,1.34,1.47,2.4,1.24,3.54-.78,7.06-1.63,10.59-2.45,1.14-.26,2.29-.5,3.43-.74s2.17,0,2.56,1.21-.49,1.86-1.59,2.23a82.77,82.77,0,0,1-15.94,4c-2,.25-3.87.27-5.38,2-.7.8-2.05,1.06-3.13,1.49-2.61,1-5.26,1.94-7.83,3.06A6.41,6.41,0,0,1,340.11,210.44Z"/><polygon class="cls-3" points="553.1 12.54 587.14 45.9 613.68 0 584.49 23.94 553.1 12.54"/><path class="cls-3" d="M624.48,1.88,560.87,114.62c27-18.09,38.64-26.12,44.23-30.08.93-.66,5.31-3.76,11.35-8,5.72-4,10.17-7.07,11.42-7.93,12.43-8.57,28.22-18.88,33-22l-32-2Z"/></g></g></svg>