<svg id="Layer_1" data-name="Layer 1" xmlns="http://www.w3.org/2000/svg" viewBox="0 0 2500 2500"><defs><style>.cls-1{fill:#fff;fill-rule:evenodd;}</style></defs><path class="cls-1" d="M554.34,927c-128.15,150.5-251,337.14-252.26,476.64-.48,52.49,16.28,98.31,56.47,133,57.84,50,121.58,67.61,185,67.71,92.68.13,184.72-37.26,256.78-66.09,121.35-48.54,1462.86-631.1,1462.86-631.1,12.94-6.48,10.51-14.56-5.69-10.53-6.53,1.63-1460.43,395.64-1460.43,395.64a321.2,321.2,0,0,1-84.61,12.12c-111.74.66-211.17-61.36-210.36-192.06.31-51.14,16-112.81,52.24-185.35Z"/></svg>